
<svg xmlns="http://www.w3.org/2000/svg" version="1.1" xmlns:xlink="http://www.w3.org/1999/xlink" preserveAspectRatio="none" x="0px" y="0px" width="80px" height="80px" viewBox="0 0 80 80">
<defs>
<g id="Layer0_0_FILL">
<path fill="#4D00C3" stroke="none" d="
M 34.95 18.5
L 34.95 79.7 79.95 79.7 79.95 18.5 34.95 18.5
M 43.5 27.05
L 71.35 27.05 71.35 71.1 43.5 71.1 43.5 27.05
M 12.3 37.25
L 19.35 31.25 32.55 31.25 32.55 18.5 11.65 18.5 11.65 31.25 14.1 31.25 12.3 37.25
M 20.65 23.4
L 23.3 23.4 23.3 26.05 20.65 26.05 20.65 23.4
M 25.15 23.4
L 27.8 23.4 27.8 26.05 25.15 26.05 25.15 23.4
M 16.15 23.4
L 18.8 23.4 18.8 26.05 16.15 26.05 16.15 23.4 Z"/>

<path fill="#6500FF" stroke="none" d="
M 67.85 39.7
L 46.95 39.7 46.95 52.45 60.15 52.45 67.2 58.45 65.4 52.45 67.85 52.45 67.85 39.7
M 51.7 44.6
L 54.35 44.6 54.35 47.25 51.7 47.25 51.7 44.6
M 56.2 47.25
L 56.2 44.6 58.85 44.6 58.85 47.25 56.2 47.25
M 60.7 47.25
L 60.7 44.6 63.35 44.6 63.35 47.25 60.7 47.25
M 44.75 15.75
L 44.75 0 0.05 0 0.05 64.7 33.05 64.7 33.05 56.1 8.6 56.1 8.6 8.55 36.15 8.55 36.15 15.75 44.75 15.75 Z"/>
</g>
</defs>

<g transform="matrix( 1, 0, 0, 1, 0,0) ">
<use xlink:href="#Layer0_0_FILL"/>
</g>
</svg>
