
<svg xmlns="http://www.w3.org/2000/svg" version="1.1" xmlns:xlink="http://www.w3.org/1999/xlink" preserveAspectRatio="none" x="0px" y="0px" width="80px" height="80px" viewBox="0 0 80 80">
<defs>
<g id="Layer0_0_FILL">
<path fill="#5000CC" stroke="none" d="
M 25.75 80
L 25.75 54.25 0 54.25 0 80 25.75 80
M 17.15 71.4
L 8.6 71.4 8.6 62.85 17.15 62.85 17.15 71.4
M 80 0
L 54.3 0 54.3 25.7 80 25.7 80 0
M 71.45 8.55
L 71.45 17.1 62.85 17.1 62.85 8.55 71.45 8.55
M 43.85 44.25
L 43.85 35.7 35.25 35.7 35.25 44.25 43.85 44.25 Z"/>

<path fill="#32007E" stroke="none" d="
M 53.35 71.4
L 53.35 80 61.9 80 61.9 71.4 53.35 71.4
M 80 71.4
L 71.45 71.4 71.45 80 80 80 80 71.4
M 80 53.55
L 71.45 53.55 71.45 62.1 80 62.1 80 53.55
M 35.25 71.4
L 35.25 80 43.85 80 43.85 71.4 35.25 71.4
M 0 44.25
L 8.6 44.25 8.6 35.7 0 35.7 0 44.25
M 71.45 44.25
L 80 44.25 80 35.7 71.45 35.7 71.45 44.25
M 43.85 8.55
L 43.85 0 35.25 0 35.25 8.55 43.85 8.55 Z"/>

<path fill="#4100A5" stroke="none" d="
M 61.9 62.1
L 61.9 53.55 53.35 53.55 53.35 62.1 61.9 62.1
M 35.25 53.55
L 35.25 62.1 43.85 62.1 43.85 53.55 35.25 53.55
M 17.15 35.7
L 17.15 44.25 25.75 44.25 25.75 35.7 17.15 35.7
M 43.85 26.4
L 43.85 17.85 35.25 17.85 35.25 26.4 43.85 26.4
M 53.35 35.7
L 53.35 44.25 61.9 44.25 61.9 35.7 53.35 35.7 Z"/>

<path fill="#6500FF" stroke="none" d="
M 0 0
L 0 25.7 25.75 25.7 25.75 0 0 0
M 17.15 8.55
L 17.15 17.1 8.6 17.1 8.6 8.55 17.15 8.55 Z"/>
</g>
</defs>

<g transform="matrix( 1, 0, 0, 1, 0,0) ">
<use xlink:href="#Layer0_0_FILL"/>
</g>
</svg>
