
<svg xmlns="http://www.w3.org/2000/svg" version="1.1" xmlns:xlink="http://www.w3.org/1999/xlink" preserveAspectRatio="none" x="0px" y="0px" width="1000px" height="200px" viewBox="0 0 1000 200">
<defs>
<linearGradient id="Gradient_1" gradientUnits="userSpaceOnUse" x1="334.59999999999997" y1="355.2" x2="415.2" y2="274.59999999999997" spreadMethod="pad">
<stop  offset="0%" stop-color="#360089"/>

<stop  offset="100%" stop-color="#6500FF"/>
</linearGradient>

<g id="Layer0_0_FILL">
<path fill="#F0F0F0" stroke="none" d="
M 146.35 56.95
L 126.65 56.95 126.65 76.2
Q 112 53.9 84.2 53.9 60.4 53.9 43.65 71.15 27.05 88.4 27.05 113.25 27.05 138.1 43.65 155.35 60.4 172.65 84.2 172.65 112 172.65 126.65 150.25
L 126.65 169.65 146.35 169.65 146.35 56.95
M 86.5 72.9
Q 103.7 72.9 115.2 84.55 126.65 96.15 126.65 113.25 126.65 130.5 115.2 141.95 103.7 153.6 86.5 153.6 69.7 153.6 58.1 141.95 46.65 130.5 46.65 113.25 46.65 96.15 58.1 84.55 69.7 72.9 86.5 72.9
M 263.85 83.5
Q 257.3 69.9 244.05 62 230.75 53.9 214 53.9 188.65 53.9 171.55 70.95 154.8 88.05 154.8 113.25 154.8 138.4 171.55 155.55 188.65 172.65 214 172.65 230.55 172.65 244.05 164.5 257.7 156.6 264.7 143.2
L 248.2 133.5
Q 243.4 142.5 234.4 147.8 225.3 153.25 214 153.05 197.1 153.05 185.65 141.6 174.35 130.15 174.35 113.25 174.35 96.15 185.65 84.7 197.1 73.1 214 73.1 225.3 73.1 234.2 78.6 243.2 84 247.5 93
L 263.85 83.5
M 367 56.95
L 347.3 56.95 347.3 169.65 367 169.65 367 56.95
M 398.05 56.95
L 376.75 56.95 421.8 169.65 444.95 169.65 490.05 56.95 468.9 56.95 433.3 148.35 398.05 56.95
M 336.1 75.9
L 336.1 56.95 306.1 56.95 306.1 25.35 286.35 31.15 286.35 56.95 264.05 56.95 264.05 75.9 286.35 75.9 286.35 136.9
Q 286.35 158 298.35 165.35 310.35 173 336.1 169.65
L 336.1 152 319.35 152.35
Q 312.45 152.15 309.25 148.85 306.1 145.35 306.1 136.9
L 306.1 75.9 336.1 75.9
M 366.5 32.55
Q 370.45 28.7 370.45 23.2 370.45 17.95 366.5 13.9 362.65 10 357.4 10 351.7 10 347.9 13.9 344 17.95 344 23.2 344 28.7 347.9 32.55 351.7 36.45 357.4 36.45 362.65 36.45 366.5 32.55 Z"/>

<path fill="#6500FF" stroke="none" d="
M 854 190
L 854 10 803.95 10 762.1 81.75 720.6 10 670.4 10 670.4 190 720.6 190 720.6 100.35 762.1 168.75 803.95 100.35 803.95 190 854 190
M 995.85 134.8
Q 995.85 122.1 991.75 112.5 987.25 103.15 978.6 97.25 970.2 91 962.15 87.85
L 942 80.8
Q 925.6 76.15 919.7 73.2 914.05 70.3 914.05 64.8 914.05 60.9 917.35 58.3 920.45 55.75 927.15 55.75 943.35 55.75 950.85 73.75
L 991.5 50.1
Q 983.35 30.55 966.05 20.4 948.7 10 926.75 10 898.95 10 881.95 25.45 864.95 40.95 864.95 64.6 864.95 104.3 916.2 119.95
L 934.8 125 940.65 127.55
Q 944.3 128.9 945.55 130.9
L 946.75 135.15
Q 946.75 144.25 929.9 144.25 907.6 144.25 898.95 122.3
L 857.4 146.2 857.4 148.05
Q 864.05 166.95 881.95 178.1 900.75 190 928.7 190 959.9 190 977.8 175.5 995.85 161.15 995.85 134.8 Z"/>
</g>

<g id="Layer0_0_MEMBER_0_FILL">
<path fill="#6500FF" stroke="none" d="
M 340.15 340.85
Q 339.3708984375 341.6802734375 338.55 342.5 320.3146484375 360.165625 298 368.95 277.240234375 377.1439453125 252.95 377.65 251.75 377.65 250.9 377.65 246.2 377.65 241.4 377.2
L 121.65 377.2 161.3 340.95
Q 127.7 305.85 127.7 255.85 127.7 204 163.35 169.4 198.95 134.3 250.9 134.3 302.5 134.3 338.55 169.4 356.953125 187.541015625 365.7 210.4
L 486.65 324.25
Q 495.6 292.0787109375 495.6 255.85 495.6 153.65 424.2 84.3 353.45 14.6 250.55 14.6 148.25 14.6 76.1 84.3 6 153.65 6 255.85 6 358.35 76.1 427.6 146 495.75 246.45 497.45 248.45 497.45 250.55 497.45 259.5 497.45 268.2 496.95
L 506 496.95 428.45 423.95 340.15 340.85 Z"/>

<path fill="url(#Gradient_1)" stroke="none" d="
M 373.65 255.85
Q 373.65 277.3927734375 367.5 296.05 359.33828125 321.0380859375 340.15 340.85
L 428.45 423.95
Q 441.49140625 410.56875 452 396.05 475.8390625 363.0984375 486.65 324.25
L 365.7 210.4
Q 373.65 231.1853515625 373.65 255.85 Z"/>
</g>
</defs>

<g transform="matrix( 1, 0, 0, 1, -11.45,0) ">
<use xlink:href="#Layer0_0_FILL"/>
</g>

<g transform="matrix( 0.3727874755859375, 0, 0, 0.3727874755859375, 470.3,4.55) ">
<use xlink:href="#Layer0_0_MEMBER_0_FILL"/>
</g>
</svg>
