<svg width="339" height="99" viewBox="0 0 339 99" fill="none" xmlns="http://www.w3.org/2000/svg">
<g clip-path="url(#clip0_228_781)">
<path d="M280.352 23.5465C280.352 23.0753 279.971 22.694 279.5 22.694H271.289C270.818 22.694 270.437 23.0753 270.437 23.5465V67.4936C270.437 67.9648 270.818 68.3462 271.289 68.3462H279.5C279.971 68.3462 280.352 67.9648 280.352 67.4936V23.5465Z" fill="white"/>
<path d="M137.781 36.3534C140.723 36.3534 143.108 33.9682 143.108 31.0258C143.108 28.0835 140.723 25.6982 137.781 25.6982C134.839 25.6982 132.454 28.0835 132.454 31.0258C132.454 33.9682 134.839 36.3534 137.781 36.3534Z" fill="white"/>
<path d="M261.348 36.3534C264.29 36.3534 266.675 33.9682 266.675 31.0258C266.675 28.0835 264.29 25.6982 261.348 25.6982C258.406 25.6982 256.021 28.0835 256.021 31.0258C256.021 33.9682 258.406 36.3534 261.348 36.3534Z" fill="white"/>
<path d="M252.99 39.1942C252.99 30.3095 245.961 23.0671 237.162 22.7212V22.694H219.509C219.038 22.694 218.657 23.0753 218.657 23.5465V67.4936C218.657 67.9648 219.038 68.3462 219.509 68.3462H227.72C228.191 68.3462 228.573 67.9648 228.573 67.4936V56.5389C228.573 56.0676 228.954 55.6863 229.425 55.6863H236.5C245.607 55.6863 252.988 48.3051 252.988 39.197L252.99 39.1942ZM236.503 47.172H229.428C228.957 47.172 228.575 46.7907 228.575 46.3195V32.099C228.575 31.6278 228.957 31.2464 229.428 31.2464H237.08C241.215 31.5433 244.48 34.9834 244.48 39.1942C244.48 43.4051 240.91 47.172 236.503 47.172Z" fill="white"/>
<path d="M129.423 39.1942C129.423 30.3095 122.394 23.0671 113.595 22.7212V22.694H95.9418C95.4706 22.694 95.0894 23.0753 95.0894 23.5465V67.4936C95.0894 67.9648 95.4706 68.3462 95.9418 68.3462H104.153C104.624 68.3462 105.005 67.9648 105.005 67.4936V56.5389C105.005 56.0676 105.386 55.6863 105.858 55.6863H112.933C122.04 55.6863 129.42 48.3051 129.42 39.197L129.423 39.1942ZM112.936 47.172H105.86C105.389 47.172 105.008 46.7907 105.008 46.3195V32.099C105.008 31.6278 105.389 31.2464 105.86 31.2464H113.513C117.647 31.5433 120.912 34.9834 120.912 39.1942C120.912 43.4051 117.342 47.172 112.936 47.172Z" fill="white"/>
<path d="M204.822 36.19C204.351 36.19 203.97 36.5713 203.97 37.0425V37.7262C203.97 37.9659 203.717 38.1157 203.504 38.0067C200.991 36.7157 198.104 36.0429 195.045 36.2172C186.769 36.6857 180.015 43.4187 179.536 51.6988C178.983 61.2509 186.565 69.1715 195.996 69.1715C198.937 69.1715 201.699 68.4007 204.09 67.0497C204.305 66.9298 204.566 67.0769 204.566 67.3221V67.5835C204.566 71.5384 201.361 74.7469 197.404 74.7469C196.576 74.7469 195.781 75.0765 195.195 75.6648L188.27 82.6184C187.733 83.1577 188.114 84.0756 188.874 84.0756H197.407C206.514 84.0756 213.894 76.6916 213.894 67.5863V37.0452C213.894 36.574 213.513 36.1927 213.041 36.1927H204.83L204.822 36.19ZM196.734 60.6599C192.327 60.6599 188.757 57.0891 188.757 52.6821C188.757 48.2751 192.327 44.7043 196.734 44.7043C201.14 44.7043 204.711 48.2751 204.711 52.6821C204.711 57.0891 201.14 60.6599 196.734 60.6599Z" fill="white"/>
<path d="M165.556 37.6962C162.258 37.7643 159.317 39.2705 157.324 41.6102C157.133 41.8335 156.765 41.6973 156.765 41.4004V38.5541C156.765 38.0829 156.384 37.7016 155.913 37.7016H147.702C147.231 37.7016 146.85 38.0829 146.85 38.5541V67.5181C146.85 67.9893 147.231 68.3706 147.702 68.3706H155.913C156.384 68.3706 156.765 67.9893 156.765 67.5181V52.0338C156.765 49.2338 158.922 46.7907 161.722 46.7062C164.617 46.6191 166.994 48.9424 166.994 51.8186V67.4882C166.994 67.9594 167.376 68.3407 167.847 68.3407H176.058C176.529 68.3407 176.91 67.9594 176.91 67.4882V49.1494C176.91 42.9012 171.798 37.5654 165.554 37.6907L165.556 37.6962Z" fill="white"/>
<path d="M137.781 40.123C136.433 40.123 135.158 39.8288 134.009 39.3004C133.453 39.0444 132.822 39.472 132.822 40.0849V67.4909C132.822 67.9621 133.203 68.3434 133.674 68.3434H141.885C142.356 68.3434 142.737 67.9621 142.737 67.4909V40.0821C142.737 39.4693 142.106 39.0444 141.55 39.2977C140.401 39.8234 139.124 40.1203 137.778 40.1203L137.781 40.123Z" fill="white"/>
<path d="M261.349 40.123C260.001 40.123 258.726 39.8288 257.577 39.3004C257.021 39.0444 256.389 39.472 256.389 40.0849V67.4909C256.389 67.9621 256.771 68.3434 257.242 68.3434H265.453C265.924 68.3434 266.305 67.9621 266.305 67.4909V40.0821C266.305 39.4693 265.673 39.0444 265.118 39.2977C263.969 39.8234 262.691 40.1203 261.346 40.1203L261.349 40.123Z" fill="white"/>
<path d="M338.096 61.1228C336.935 61.1964 335.345 61.229 335.345 61.229C333.046 61.229 331.189 59.347 331.189 57.0481V45.3362C331.189 44.865 331.57 44.4837 332.042 44.4837H337.415C337.886 44.4837 338.267 44.1023 338.267 43.6311V37.0479C338.267 36.5767 337.886 36.1954 337.415 36.1954H332.042C331.57 36.1954 331.189 35.8141 331.189 35.3429V26.5562C331.189 26.085 330.808 25.7037 330.337 25.7037H322.126C321.655 25.7037 321.273 26.085 321.273 26.5562V35.3429C321.273 35.8141 320.892 36.1954 320.421 36.1954H313.011C312.382 36.1954 312.087 36.9826 312.572 37.3857C314.827 39.2569 316.657 41.6183 317.907 44.3039C317.959 44.4156 318.068 44.4864 318.19 44.4864C318.972 44.4864 320.418 44.4864 320.418 44.4864C320.889 44.4864 321.271 44.8677 321.271 45.3389V58.8703C321.271 64.5601 325.884 69.1741 331.573 69.1741H332.374C334.855 69.1741 336.821 68.9862 338.273 68.771C338.692 68.7084 338.997 68.3488 338.997 67.9266V61.9781C338.997 61.4851 338.583 61.0956 338.093 61.1255L338.096 61.1228Z" fill="white"/>
<path d="M299.892 69.1714C308.999 69.1714 316.38 61.7875 316.38 52.6821C316.38 43.5767 308.996 36.1927 299.892 36.1927C290.788 36.1927 283.405 43.5767 283.405 52.6821C283.405 61.7902 290.788 69.1714 299.892 69.1714ZM300.211 60.5264H292.071C291.883 60.5264 291.79 60.3003 291.924 60.1668L294.26 58.2466C294.364 58.1431 294.369 57.977 294.274 57.868C294.173 57.7536 294.056 57.6202 294.004 57.5575C292.844 56.1221 292.171 54.2727 292.24 52.2654C292.381 48.1171 295.755 44.7316 299.9 44.5736C304.448 44.402 308.188 48.0354 308.188 52.5459C308.188 56.9529 304.617 60.5237 300.211 60.5237V60.5264Z" fill="white"/>
<path d="M13.8157 98.2496C20.6938 98.2496 26.2697 92.673 26.2697 85.794C26.2697 78.915 20.6938 73.3385 13.8157 73.3385C6.93753 73.3385 1.36169 78.915 1.36169 85.794C1.36169 92.673 6.93753 98.2496 13.8157 98.2496Z" fill="#A0EC11"/>
<mask id="mask0_228_781" style="mask-type:luminance" maskUnits="userSpaceOnUse" x="1" y="1" width="76" height="76">
<path d="M39.1485 76.9421C60.0177 76.9421 76.9353 60.0224 76.9353 39.1507C76.9353 18.2789 60.015 1.36188 39.1485 1.36188C18.282 1.36188 1.36169 18.2816 1.36169 39.1534C1.36169 60.0252 18.2793 76.9449 39.1485 76.9449V76.9421ZM39.8783 57.1326H21.2233C20.793 57.1326 20.5805 56.6124 20.8856 56.31L26.2397 51.9085C26.4766 51.6743 26.4903 51.293 26.2697 51.0424C26.0382 50.7782 25.7686 50.4704 25.6542 50.3315C22.9934 47.0385 21.452 42.8031 21.61 38.2055C21.9368 28.6998 29.6684 20.9372 39.1703 20.5777C49.5899 20.1827 58.1631 28.5146 58.1631 38.8483C58.1631 48.9451 49.9793 57.1326 39.8811 57.1326H39.8783Z" fill="white"/>
</mask>
<g mask="url(#mask0_228_781)">
<rect x="-0.0408936" y="-0.021759" width="78.4332" height="78.443" fill="#A0EC11"/>
</g>
</g>
<defs>
<clipPath id="clip0_228_781">
<rect width="339" height="98.2497" fill="white"/>
</clipPath>
</defs>
</svg>
