<svg xmlns="http://www.w3.org/2000/svg" width="600" height="175" viewBox="0 0 600 175" fill="none"><path d="M74.9016 126.083C71.5056 122.051 67.4257 118.687 62.7891 116.842C58.2718 115.036 52.49 113.326 45.6026 111.752C39.614 110.392 35.2319 109.446 32.5835 108.197C30.2294 107.092 29.0842 105.509 29.0842 103.354C29.0842 101.199 30.0704 99.3535 32.0984 97.9379C34.2219 96.4587 37.7371 95.7112 42.5407 95.7112C50.3665 95.7112 58.574 98.1686 66.9327 103.028L68.0143 103.656L76.6115 81.3644L75.8718 80.8952C71.4261 78.0879 66.2248 75.9248 60.3953 74.4774C54.5975 73.0379 48.6327 72.3063 42.66 72.3063C33.8958 72.3063 26.3722 73.7298 20.3041 76.553C14.1882 79.3922 9.51977 83.3129 6.42604 88.2118C3.33232 93.1027 1.76557 98.6616 1.76557 104.738C1.76557 111.688 3.49138 117.303 6.88732 121.438C10.2435 125.518 14.3234 128.532 19.0077 130.385C23.5728 132.19 29.4103 134.33 36.1942 135.904C42.2544 137.352 46.7002 138.743 49.4121 140.04C51.814 141.193 52.9035 142.465 52.9035 144.803C52.9035 151.611 42.6759 151.611 39.3197 151.611C34.3093 151.611 29.1478 150.744 23.9784 149.042C18.793 147.34 14.1802 145.066 10.2594 142.282L9.16984 141.511L0 163.659L0.660101 164.152C5.01836 167.437 10.7604 170.101 17.7114 172.065C24.6305 174.014 31.8598 175.008 39.2005 175.008C47.8772 175.008 55.3849 173.553 61.4928 170.698C67.6484 167.819 72.3327 163.898 75.4344 159.047C78.5282 154.196 80.0949 148.7 80.0949 142.72C80.0949 135.777 78.3452 130.178 74.8936 126.075L74.9016 126.083Z" fill="white"></path><path d="M343.563 172.543L325.271 139.451H314.685V172.543H289.904V74.4535H335.952C356.232 74.4535 369.847 87.5119 369.847 106.948C369.847 123.251 360.073 132.58 350.585 136.055L372.281 172.543H343.571H343.563ZM333.152 117.04C339.944 117.04 344.501 112.921 344.501 106.805C344.501 100.69 339.936 96.8564 333.152 96.8564H314.685V117.04H333.152Z" fill="white"></path><path d="M543.366 172.543V134.624H503.275V172.543H478.494V74.4535H503.275V112.356H543.366V74.4535H568.291V172.543H543.366Z" fill="white"></path><path d="M450.125 140.93C445.107 146.895 437.719 150.386 429.829 150.386C415.188 150.386 403.29 138.473 403.29 123.832C403.29 109.191 415.188 97.2859 429.829 97.2859C437.607 97.2859 444.932 100.706 449.95 106.543L467.519 88.9753C457.895 78.5413 444.264 72.2904 429.813 72.2904C401.508 72.2904 378.492 95.3295 378.492 123.641C378.492 151.953 401.508 175 429.813 175C444.264 175 457.887 168.765 467.519 158.339L467.471 158.283L450.117 140.93H450.125Z" fill="white"></path><path d="M158.05 140.93C153.032 146.895 145.644 150.386 137.754 150.386C123.113 150.386 111.215 138.473 111.215 123.832C111.215 109.191 123.113 97.2859 137.754 97.2859C145.532 97.2859 152.857 100.706 157.875 106.543L175.444 88.9753C165.82 78.5413 152.189 72.2904 137.738 72.2904C109.434 72.2904 86.4175 95.3295 86.4175 123.641C86.4175 151.953 109.434 175 137.738 175C152.189 175 165.813 168.765 175.444 158.339L175.396 158.283L158.042 140.93H158.05Z" fill="white"></path><path fill-rule="evenodd" clip-rule="evenodd" d="M213.944 33.1788C219.917 13.0345 206.858 0.00795274 206.858 0.00795274L206.85 0C212.618 17.6008 206.672 25.6691 200.743 33.7145C195.618 40.668 190.506 47.6045 192.98 60.6635C190.698 56.5996 179.929 44.583 179.929 44.583C193.416 69.977 187.922 84.9281 182.69 99.1667L182.578 99.4728C181.17 102.837 180.152 105.763 179.42 108.3C178.482 111.33 177.806 114.488 177.44 117.732C177.329 118.615 177.193 120.142 177.217 120.118C177.138 121.255 177.106 122.416 177.106 123.562C177.106 151.873 200.066 174.857 228.403 174.857C256.74 174.857 279.7 151.873 279.7 123.562C279.7 106.026 269.886 89.5319 256.66 78.4458C255.528 77.499 254.387 76.5669 253.247 75.6361C247.829 71.2117 242.451 66.8193 238.304 61.0373C234.209 55.3033 231.799 48.6946 230.598 41.7678C228.705 30.8646 228.968 19.2933 231.234 8.46171C231.703 6.25085 232.268 4.0718 232.976 1.92456C212.409 33.7673 209.435 58.1345 212.258 75.2011C209.729 75.9566 207.375 76.903 205.132 77.9607C202.261 65.6668 206.714 53.5079 210.667 42.7117C211.883 39.3935 213.051 36.2039 213.944 33.1788ZM228.387 98.598C242.233 98.598 253.455 109.835 253.455 123.657C253.455 137.503 242.209 148.724 228.387 148.724C214.565 148.724 203.335 137.479 203.335 123.657C203.335 109.835 214.541 98.598 228.387 98.598Z" fill="#0064FF"></path><path d="M576.992 85.9134C576.992 84.3308 577.294 82.8436 577.899 81.4439C578.503 80.0522 579.33 78.8355 580.372 77.8095C581.414 76.7836 582.631 75.9645 584.03 75.3601C585.43 74.7557 586.917 74.4535 588.5 74.4535C590.083 74.4535 591.57 74.7557 592.97 75.3601C594.361 75.9645 595.586 76.7836 596.628 77.8095C597.67 78.8355 598.497 80.0443 599.101 81.4439C599.706 82.8436 600.008 84.3308 600.008 85.9134C600.008 87.496 599.706 88.9752 599.101 90.351C598.497 91.7268 597.67 92.9357 596.628 93.9616C595.586 94.9875 594.361 95.7986 592.97 96.3871C591.57 96.9756 590.083 97.2699 588.5 97.2699C586.917 97.2699 585.43 96.9756 584.03 96.3871C582.631 95.7986 581.414 94.9875 580.372 93.9616C579.33 92.9357 578.503 91.7348 577.899 90.351C577.294 88.9752 576.992 87.496 576.992 85.9134ZM578.813 85.9134C578.813 87.2256 579.068 88.4742 579.569 89.6512C580.07 90.8282 580.762 91.862 581.637 92.7527C582.511 93.6434 583.537 94.3433 584.714 94.8443C585.891 95.3453 587.156 95.5998 588.5 95.5998C589.844 95.5998 591.109 95.3453 592.286 94.8443C593.463 94.3433 594.489 93.6434 595.363 92.7527C596.238 91.862 596.93 90.8282 597.431 89.6512C597.932 88.4742 598.187 87.2256 598.187 85.9134C598.187 84.6012 597.932 83.3049 597.431 82.1279C596.93 80.9509 596.238 79.925 595.363 79.0502C594.489 78.1754 593.463 77.4835 592.286 76.9825C591.109 76.4814 589.844 76.2269 588.5 76.2269C587.156 76.2269 585.891 76.4814 584.714 76.9825C583.537 77.4835 582.511 78.1754 581.637 79.0502C580.762 79.925 580.07 80.9509 579.569 82.1279C579.068 83.3049 578.813 84.5694 578.813 85.9134ZM591.276 92.2199L588.5 87.2256H586.687V92.2199H583.609V79.3047H589.16C589.764 79.3047 590.353 79.3762 590.926 79.5035C591.498 79.6387 592.015 79.8534 592.492 80.1556C592.97 80.4578 593.343 80.8714 593.63 81.3883C593.916 81.9132 594.059 82.5573 594.059 83.3287C594.059 84.2035 593.813 84.9272 593.327 85.4998C592.842 86.0724 592.222 86.4939 591.482 86.7643L594.91 92.212H591.276V92.2199ZM589.057 84.9988C589.526 84.9988 589.955 84.8477 590.345 84.5455C590.735 84.2433 590.926 83.8377 590.926 83.3367C590.926 82.7959 590.703 82.4142 590.274 82.1756C589.836 81.937 589.43 81.8257 589.065 81.8257H586.695V85.0068H589.065L589.057 84.9988Z" fill="white"></path></svg>